<svg width="512" height="512" viewBox="0 0 512 512" fill="none" xmlns="http://www.w3.org/2000/svg">
<rect width="512" height="512" rx="25" fill="#0F0F0F"/>
<path d="M312.168 157.707L237.772 286.564H199.935L283.79 141.323C292.838 125.65 287.469 105.61 271.796 96.561C256.123 87.5124 236.083 92.8822 227.034 108.555L124.26 286.565C101.608 286.679 81.6738 298.287 69.9906 315.854L69.632 315.647L198.656 92.1709C216.753 60.8256 256.834 50.0858 288.18 68.1831C319.525 86.2804 330.265 126.362 312.168 157.707Z" fill="url(#paint0_linear_2_30)"/>
<path d="M269.601 133.131L181.016 286.564H143.179L241.223 116.747C245.747 108.911 255.768 106.226 263.604 110.75C271.44 115.274 274.125 125.295 269.601 133.131Z" fill="url(#paint1_linear_2_30)"/>
<path d="M124.928 284.672H273.719L292.638 317.44H124.928C106.831 317.44 92.16 332.111 92.16 350.208C92.16 368.305 106.831 382.976 124.928 382.976H330.476C341.901 402.536 361.921 413.996 382.976 415.33V415.744H124.928C88.7335 415.744 59.392 386.403 59.392 350.208C59.392 314.013 88.7335 284.672 124.928 284.672Z" fill="url(#paint2_linear_2_30)"/>
<path d="M124.928 333.824H302.097L321.015 366.592H124.928C115.879 366.592 108.544 359.257 108.544 350.208C108.544 341.159 115.879 333.824 124.928 333.824Z" fill="url(#paint3_linear_2_30)"/>
<path d="M329.587 383.2L256 255.265L274.713 222.732L357.656 366.933C366.606 382.493 386.429 387.825 401.932 378.841C417.434 369.857 422.745 349.96 413.795 334.399L312.138 157.664C323.243 138.13 323.159 115.228 313.888 96.4616L314.243 96.256L441.864 318.133C459.765 349.254 449.142 389.048 418.137 407.016C387.133 424.984 347.487 414.321 329.587 383.2Z" fill="url(#paint4_linear_2_30)"/>
<path d="M371.691 358.8L284.069 206.465L302.782 173.931L399.76 342.533C404.235 350.313 401.58 360.262 393.829 364.754C386.077 369.246 376.166 366.58 371.691 358.8Z" fill="url(#paint5_linear_2_30)"/>
<defs>
<linearGradient id="paint0_linear_2_30" x1="288.18" y1="68.1831" x2="126.388" y2="348.415" gradientUnits="userSpaceOnUse">
<stop stop-color="#0072E6"/>
<stop offset="1" stop-color="#00448A"/>
</linearGradient>
<linearGradient id="paint1_linear_2_30" x1="288.18" y1="68.1831" x2="126.388" y2="348.415" gradientUnits="userSpaceOnUse">
<stop stop-color="#0072E6"/>
<stop offset="1" stop-color="#00448A"/>
</linearGradient>
<linearGradient id="paint2_linear_2_30" x1="59.392" y1="350.208" x2="382.976" y2="350.208" gradientUnits="userSpaceOnUse">
<stop stop-color="#0072E6"/>
<stop offset="1" stop-color="#00448A"/>
</linearGradient>
<linearGradient id="paint3_linear_2_30" x1="59.392" y1="350.208" x2="382.976" y2="350.208" gradientUnits="userSpaceOnUse">
<stop stop-color="#0072E6"/>
<stop offset="1" stop-color="#00448A"/>
</linearGradient>
<linearGradient id="paint4_linear_2_30" x1="418.137" y1="407.016" x2="257.203" y2="129.312" gradientUnits="userSpaceOnUse">
<stop stop-color="#0072E6"/>
<stop offset="1" stop-color="#00448A"/>
</linearGradient>
<linearGradient id="paint5_linear_2_30" x1="418.137" y1="407.016" x2="257.203" y2="129.312" gradientUnits="userSpaceOnUse">
<stop stop-color="#0072E6"/>
<stop offset="1" stop-color="#00448A"/>
</linearGradient>
</defs>
</svg>
