<svg width="200" height="50" viewBox="0 0 200 50" fill="none" xmlns="http://www.w3.org/2000/svg">
<g clip-path="url(#clip0_0_3)">
<path d="M52.4933 38.336H40.4453L38.5733 44H28.6373L41.0693 10.16H51.9653L64.3493 44H54.3653L52.4933 38.336ZM50.1413 31.232L46.4933 20.192L42.7973 31.232H50.1413ZM85.1311 16.832C88.2351 16.832 90.6671 17.872 92.4271 19.952C94.1871 22 95.0671 24.8 95.0671 28.352V44H85.7071V29.552C85.7071 27.984 85.2911 26.768 84.4591 25.904C83.6591 25.008 82.5711 24.56 81.1951 24.56C79.7871 24.56 78.6671 25.024 77.8351 25.952C77.0031 26.848 76.5871 28.096 76.5871 29.696V44H67.1311V17.072H76.5871V21.584C77.3551 20.144 78.4751 18.992 79.9471 18.128C81.4191 17.264 83.1471 16.832 85.1311 16.832ZM99.3162 9.632C99.3162 8.224 99.8282 7.072 100.852 6.176C101.876 5.248 103.22 4.784 104.884 4.784C106.548 4.784 107.876 5.248 108.868 6.176C109.86 7.072 110.356 8.224 110.356 9.632C110.356 10.976 109.844 12.096 108.82 12.992C107.828 13.888 106.516 14.336 104.884 14.336C103.22 14.336 101.876 13.888 100.852 12.992C99.8282 12.096 99.3162 10.976 99.3162 9.632ZM109.54 17.072V44H100.084V17.072H109.54Z" fill="white"/>
<path d="M154.26 10.16V44H144.9V24.8L138.612 44H130.5L124.212 24.8V44H114.756V10.16H126.324L134.676 32.144L142.788 10.16H154.26ZM158.707 9.632C158.707 8.224 159.219 7.072 160.243 6.176C161.267 5.248 162.611 4.784 164.275 4.784C165.939 4.784 167.267 5.248 168.259 6.176C169.251 7.072 169.747 8.224 169.747 9.632C169.747 10.976 169.235 12.096 168.211 12.992C167.219 13.888 165.907 14.336 164.275 14.336C162.611 14.336 161.267 13.888 160.243 12.992C159.219 12.096 158.707 10.976 158.707 9.632ZM168.931 17.072V44H159.475V17.072H168.931Z" fill="#0072E6"/>
</g>
<defs>
<clipPath id="clip0_0_3">
<rect width="200" height="50" fill="white"/>
</clipPath>
</defs>
</svg>
